<mxfile host="app.diagrams.net" modified="2023-09-14T08:43:55.656Z" agent="Mozilla/5.0 (Windows NT 10.0; Win64; x64) AppleWebKit/537.36 (KHTML, like Gecko) Teams/1.6.00.22378 Chrome/102.0.5005.197 Electron/19.1.8 Safari/537.36" etag="umoiNoSqGtQJl9gpmBwY" version="21.7.5" type="onedrive">
  <diagram id="g2Wzc3LJeykZ-4ghjx7I" name="Page-1">
    <mxGraphModel grid="0" page="1" gridSize="10" guides="1" tooltips="1" connect="1" arrows="1" fold="1" pageScale="1" pageWidth="1169" pageHeight="827" math="0" shadow="0">
      <root>
        <mxCell id="0" />
        <mxCell id="1" parent="0" />
        <mxCell id="9aG9C3P-JA33TlA3kWqY-1" value="L_UA2012_18" style="swimlane;fontStyle=0;childLayout=stackLayout;horizontal=1;startSize=30;horizontalStack=0;resizeParent=1;resizeParentMax=0;resizeLast=0;collapsible=1;marginBottom=0;whiteSpace=wrap;html=1;fontSize=14;strokeColor=#0000CC;fontColor=#0000CC;" vertex="1" parent="1">
          <mxGeometry x="-1140" y="1133" width="182" height="188" as="geometry" />
        </mxCell>
        <mxCell id="9aG9C3P-JA33TlA3kWqY-2" value="&lt;div style=&quot;font-size: 14px;&quot;&gt;&lt;i style=&quot;font-weight: bold;&quot;&gt;id &lt;/i&gt;[int]&lt;/div&gt;&lt;div style=&quot;font-size: 14px;&quot;&gt;&lt;i&gt;UA12_18_code &lt;/i&gt;[int]&lt;/div&gt;&lt;div style=&quot;font-size: 14px;&quot;&gt;UA12_18_level1 [text]&lt;/div&gt;&lt;div style=&quot;font-size: 14px;&quot;&gt;UA12_18_level2 [text]&lt;/div&gt;&lt;div style=&quot;font-size: 14px;&quot;&gt;UA12_18_level3 [text]&lt;/div&gt;&lt;div style=&quot;font-size: 14px;&quot;&gt;UA12_18_level4 [text]&lt;/div&gt;&lt;div style=&quot;font-size: 14px;&quot;&gt;Seal_share [decimal(2)]&lt;/div&gt;&lt;div style=&quot;font-size: 14px;&quot;&gt;&lt;pre style=&quot;border: none; font-size: var(--jp-code-font-size); box-sizing: unset; font-family: var(--jp-code-font-family); line-height: var(--jp-code-line-height); margin-top: 0px; margin-bottom: 0px; padding: 0px; overflow: auto; word-break: break-all; overflow-wrap: break-word;&quot;&gt;version [decimal(1)]&lt;/pre&gt;&lt;pre style=&quot;border: none; font-size: var(--jp-code-font-size); box-sizing: unset; font-family: var(--jp-code-font-family); line-height: var(--jp-code-line-height); margin-top: 0px; margin-bottom: 0px; padding: 0px; overflow: auto; word-break: break-all; overflow-wrap: break-word;&quot;&gt;source [text]&lt;/pre&gt;&lt;/div&gt;" style="text;strokeColor=#0000CC;fillColor=none;align=left;verticalAlign=middle;spacingLeft=4;spacingRight=4;overflow=hidden;points=[[0,0.5],[1,0.5]];portConstraint=eastwest;rotatable=0;whiteSpace=wrap;html=1;fontSize=14;fontColor=#0000CC;" vertex="1" parent="9aG9C3P-JA33TlA3kWqY-1">
          <mxGeometry y="30" width="182" height="158" as="geometry" />
        </mxCell>
        <mxCell id="9aG9C3P-JA33TlA3kWqY-3" value="L_UA_LCF_1218" style="swimlane;fontStyle=0;childLayout=stackLayout;horizontal=1;startSize=30;horizontalStack=0;resizeParent=1;resizeParentMax=0;resizeLast=0;collapsible=1;marginBottom=0;whiteSpace=wrap;html=1;fontSize=14;strokeColor=#000000;fontColor=#000000;" vertex="1" parent="1">
          <mxGeometry x="-939" y="1133" width="140" height="305" as="geometry" />
        </mxCell>
        <mxCell id="9aG9C3P-JA33TlA3kWqY-4" value="&lt;div style=&quot;font-size: 14px;&quot;&gt;&lt;b style=&quot;font-style: italic;&quot;&gt;id &lt;/b&gt;[int]&lt;/div&gt;&lt;div style=&quot;font-size: 14px;&quot;&gt;&lt;i style=&quot;background-color: initial;&quot;&gt;ChangeCode1218&lt;/i&gt;&lt;br&gt;&lt;/div&gt;&lt;div style=&quot;font-size: 14px;&quot;&gt;LCF_lv1&lt;/div&gt;&lt;div style=&quot;font-size: 14px;&quot;&gt;LCF_lv2&lt;/div&gt;&lt;div style=&quot;font-size: 14px;&quot;&gt;LCF_lv1_name&lt;/div&gt;&lt;div style=&quot;font-size: 14px;&quot;&gt;LCF_lv2_name&lt;/div&gt;&lt;div style=&quot;font-size: 14px;&quot;&gt;Landtake&lt;/div&gt;&lt;div style=&quot;font-size: 14px;&quot;&gt;InvLT&lt;/div&gt;&lt;div style=&quot;font-size: 14px;&quot;&gt;Landtake_all&lt;/div&gt;&lt;div style=&quot;font-size: 14px;&quot;&gt;Land recycling&lt;/div&gt;&lt;div style=&quot;font-size: 14px;&quot;&gt;Densification&lt;/div&gt;&lt;div style=&quot;font-size: 14px;&quot;&gt;Grey_recycling&lt;/div&gt;&lt;div style=&quot;font-size: 14px;&quot;&gt;Green_recycling&lt;/div&gt;&lt;div style=&quot;font-size: 14px;&quot;&gt;version&lt;/div&gt;&lt;div style=&quot;font-size: 14px;&quot;&gt;source&lt;/div&gt;" style="text;strokeColor=#000000;fillColor=none;align=left;verticalAlign=middle;spacingLeft=4;spacingRight=4;overflow=hidden;points=[[0,0.5],[1,0.5]];portConstraint=eastwest;rotatable=0;whiteSpace=wrap;html=1;fontSize=14;fontColor=#000000;" vertex="1" parent="9aG9C3P-JA33TlA3kWqY-3">
          <mxGeometry y="30" width="140" height="275" as="geometry" />
        </mxCell>
        <mxCell id="9aG9C3P-JA33TlA3kWqY-5" value="L_UA_LCF_0612" style="swimlane;fontStyle=0;childLayout=stackLayout;horizontal=1;startSize=30;horizontalStack=0;resizeParent=1;resizeParentMax=0;resizeLast=0;collapsible=1;marginBottom=0;whiteSpace=wrap;html=1;fontSize=14;strokeColor=#000000;fontColor=#000000;" vertex="1" parent="1">
          <mxGeometry x="-778" y="1133" width="140" height="303" as="geometry" />
        </mxCell>
        <mxCell id="9aG9C3P-JA33TlA3kWqY-6" value="&lt;div style=&quot;font-size: 14px;&quot;&gt;&lt;i style=&quot;font-weight: bold;&quot;&gt;id &lt;/i&gt;[int]&lt;/div&gt;&lt;div style=&quot;font-size: 14px;&quot;&gt;&lt;span style=&quot;background-color: initial;&quot;&gt;ChangeCode0612&lt;/span&gt;&lt;br&gt;&lt;/div&gt;&lt;div style=&quot;font-size: 14px;&quot;&gt;LCF_lvl1&lt;/div&gt;&lt;div style=&quot;font-size: 14px;&quot;&gt;LCF_lv2&lt;/div&gt;&lt;div style=&quot;font-size: 14px;&quot;&gt;LCF_lv1_name&lt;/div&gt;&lt;div style=&quot;font-size: 14px;&quot;&gt;LCF_lv2_name&lt;/div&gt;&lt;div style=&quot;font-size: 14px;&quot;&gt;Landtake&lt;/div&gt;&lt;div style=&quot;font-size: 14px;&quot;&gt;InvLT&lt;/div&gt;&lt;div style=&quot;font-size: 14px;&quot;&gt;Landtake_all&lt;/div&gt;&lt;div style=&quot;font-size: 14px;&quot;&gt;Land recycling&lt;/div&gt;&lt;div style=&quot;font-size: 14px;&quot;&gt;Densification&lt;/div&gt;&lt;div style=&quot;font-size: 14px;&quot;&gt;Grey_recycling&lt;/div&gt;&lt;div style=&quot;font-size: 14px;&quot;&gt;Green_recycling&lt;/div&gt;&lt;div style=&quot;font-size: 14px;&quot;&gt;&lt;span style=&quot;background-color: initial;&quot;&gt;version&lt;/span&gt;&lt;br&gt;&lt;/div&gt;&lt;div style=&quot;font-size: 14px;&quot;&gt;&lt;div style=&quot;border-color: var(--border-color);&quot;&gt;source&lt;/div&gt;&lt;/div&gt;" style="text;strokeColor=#000000;fillColor=none;align=left;verticalAlign=middle;spacingLeft=4;spacingRight=4;overflow=hidden;points=[[0,0.5],[1,0.5]];portConstraint=eastwest;rotatable=0;whiteSpace=wrap;html=1;fontSize=14;fontColor=#000000;" vertex="1" parent="9aG9C3P-JA33TlA3kWqY-5">
          <mxGeometry y="30" width="140" height="273" as="geometry" />
        </mxCell>
        <mxCell id="9aG9C3P-JA33TlA3kWqY-9" value="L_env_zones" style="swimlane;fontStyle=0;childLayout=stackLayout;horizontal=1;startSize=30;horizontalStack=0;resizeParent=1;resizeParentMax=0;resizeLast=0;collapsible=1;marginBottom=0;whiteSpace=wrap;html=1;fontSize=14;strokeColor=#000000;fontColor=#000000;" vertex="1" parent="1">
          <mxGeometry x="-617" y="1294" width="140" height="135" as="geometry" />
        </mxCell>
        <mxCell id="9aG9C3P-JA33TlA3kWqY-10" value="&lt;div style=&quot;font-size: 14px;&quot;&gt;&lt;b&gt;&lt;i&gt;id&lt;/i&gt;&lt;/b&gt;&lt;/div&gt;&lt;div style=&quot;font-size: 14px;&quot;&gt;&lt;span style=&quot;background-color: initial;&quot;&gt;&lt;i&gt;ez_code&lt;/i&gt;&lt;/span&gt;&lt;/div&gt;&lt;div style=&quot;font-size: 14px;&quot;&gt;&lt;span style=&quot;background-color: initial;&quot;&gt;&lt;i&gt;ez_raster_code&lt;/i&gt;&lt;br&gt;&lt;/span&gt;&lt;/div&gt;&lt;div style=&quot;font-size: 14px;&quot;&gt;ez_name&lt;span style=&quot;background-color: initial;&quot;&gt;&lt;br&gt;&lt;/span&gt;&lt;/div&gt;&lt;div style=&quot;font-size: 14px;&quot;&gt;&lt;span style=&quot;background-color: initial;&quot;&gt;version&lt;/span&gt;&lt;/div&gt;&lt;div style=&quot;font-size: 14px;&quot;&gt;&lt;span style=&quot;background-color: initial;&quot;&gt;source&lt;/span&gt;&lt;/div&gt;" style="text;strokeColor=#000000;fillColor=none;align=left;verticalAlign=middle;spacingLeft=4;spacingRight=4;overflow=hidden;points=[[0,0.5],[1,0.5]];portConstraint=eastwest;rotatable=0;whiteSpace=wrap;html=1;fontSize=14;fontColor=#000000;" vertex="1" parent="9aG9C3P-JA33TlA3kWqY-9">
          <mxGeometry y="30" width="140" height="105" as="geometry" />
        </mxCell>
        <mxCell id="9aG9C3P-JA33TlA3kWqY-13" value="L_UA2006" style="swimlane;fontStyle=0;childLayout=stackLayout;horizontal=1;startSize=30;horizontalStack=0;resizeParent=1;resizeParentMax=0;resizeLast=0;collapsible=1;marginBottom=0;whiteSpace=wrap;html=1;fontSize=14;strokeColor=#000000;fontColor=#000000;" vertex="1" parent="1">
          <mxGeometry x="-1140" y="1332" width="140" height="174" as="geometry" />
        </mxCell>
        <mxCell id="9aG9C3P-JA33TlA3kWqY-14" value="&lt;div style=&quot;font-size: 14px;&quot;&gt;&lt;b&gt;&lt;i&gt;id&amp;nbsp;&lt;/i&gt;&lt;/b&gt;&lt;/div&gt;&lt;div style=&quot;font-size: 14px;&quot;&gt;&lt;span style=&quot;background-color: initial;&quot;&gt;&lt;i&gt;UA06_code&lt;/i&gt;&lt;/span&gt;&lt;/div&gt;&lt;div style=&quot;font-size: 14px;&quot;&gt;UA06_level1&lt;/div&gt;&lt;div style=&quot;font-size: 14px;&quot;&gt;UA06_level2&lt;/div&gt;&lt;div style=&quot;font-size: 14px;&quot;&gt;UA06_level3&lt;/div&gt;&lt;div style=&quot;font-size: 14px;&quot;&gt;UA06_level4&lt;/div&gt;&lt;div style=&quot;font-size: 14px;&quot;&gt;&lt;pre style=&quot;border: none; font-size: var(--jp-code-font-size); box-sizing: unset; font-family: var(--jp-code-font-family); line-height: var(--jp-code-line-height); margin-top: 0px; margin-bottom: 0px; padding: 0px; overflow: auto; word-break: break-all; overflow-wrap: break-word;&quot;&gt;version&lt;/pre&gt;&lt;pre style=&quot;border: none; font-size: var(--jp-code-font-size); box-sizing: unset; font-family: var(--jp-code-font-family); line-height: var(--jp-code-line-height); margin-top: 0px; margin-bottom: 0px; padding: 0px; overflow: auto; word-break: break-all; overflow-wrap: break-word;&quot;&gt;source&lt;/pre&gt;&lt;/div&gt;" style="text;strokeColor=#000000;fillColor=none;align=left;verticalAlign=middle;spacingLeft=4;spacingRight=4;overflow=hidden;points=[[0,0.5],[1,0.5]];portConstraint=eastwest;rotatable=0;whiteSpace=wrap;html=1;fontSize=14;fontColor=#000000;" vertex="1" parent="9aG9C3P-JA33TlA3kWqY-13">
          <mxGeometry y="30" width="140" height="144" as="geometry" />
        </mxCell>
        <mxCell id="9aG9C3P-JA33TlA3kWqY-17" value="L_city_urau21" style="swimlane;fontStyle=0;childLayout=stackLayout;horizontal=1;startSize=30;horizontalStack=0;resizeParent=1;resizeParentMax=0;resizeLast=0;collapsible=1;marginBottom=0;whiteSpace=wrap;html=1;fontSize=14;strokeColor=#0000CC;fontColor=#0000CC;" vertex="1" parent="1">
          <mxGeometry x="-446" y="1134" width="229" height="482" as="geometry" />
        </mxCell>
        <mxCell id="9aG9C3P-JA33TlA3kWqY-18" value="&lt;div style=&quot;font-size: 14px;&quot;&gt;&lt;b style=&quot;font-style: italic;&quot;&gt;id &lt;/b&gt;[int]&lt;/div&gt;&lt;div style=&quot;font-size: 14px;&quot;&gt;GEOMETRY [geom]&lt;/div&gt;&lt;div style=&quot;font-size: 14px;&quot;&gt;&lt;i&gt;urau_code&lt;/i&gt;&lt;i&gt;&amp;nbsp;&lt;/i&gt;[text]&lt;/div&gt;&lt;div style=&quot;font-size: 14px;&quot;&gt;&lt;i&gt;urau_raster_code &lt;/i&gt;[int]&lt;/div&gt;&lt;div style=&quot;font-size: 14px;&quot;&gt;urau_catg [char(1)]&lt;/div&gt;&lt;div style=&quot;font-size: 14px;&quot;&gt;cntr_code [char(2)]&lt;/div&gt;&lt;div style=&quot;font-size: 14px;&quot;&gt;urau_name [text]&lt;/div&gt;&lt;div style=&quot;font-size: 14px;&quot;&gt;fua_code [text]&lt;/div&gt;&lt;div style=&quot;font-size: 14px;&quot;&gt;area_sqm [decimal(6)]&lt;/div&gt;&lt;div style=&quot;font-size: 14px;&quot;&gt;nuts3_2021 [text]&lt;/div&gt;&lt;div style=&quot;font-size: 14px;&quot;&gt;&lt;div style=&quot;font-size: 14px;&quot;&gt;&lt;div style=&quot;border-color: var(--border-color);&quot;&gt;_wgs84x [decimal(4)&lt;span style=&quot;background-color: initial;&quot;&gt;]&lt;/span&gt;&lt;/div&gt;&lt;div style=&quot;border-color: var(--border-color);&quot;&gt;_wgs84y [decimal(4)&lt;span style=&quot;background-color: initial;&quot;&gt;]&lt;/span&gt;&lt;/div&gt;&lt;/div&gt;&lt;div style=&quot;font-size: 14px;&quot;&gt;&lt;pre style=&quot;border: none; font-size: var(--jp-code-font-size); box-sizing: unset; font-family: var(--jp-code-font-family); line-height: var(--jp-code-line-height); margin-top: 0px; margin-bottom: 0px; padding: 0px; overflow: auto; word-break: break-all; overflow-wrap: break-word;&quot;&gt;version [decimal(1)]&lt;/pre&gt;&lt;pre style=&quot;border: none; font-size: var(--jp-code-font-size); box-sizing: unset; font-family: var(--jp-code-font-family); line-height: var(--jp-code-line-height); margin-top: 0px; margin-bottom: 0px; padding: 0px; overflow: auto; word-break: break-all; overflow-wrap: break-word;&quot;&gt;source [text]&lt;/pre&gt;&lt;pre style=&quot;border: none; font-size: var(--jp-code-font-size); box-sizing: unset; font-family: var(--jp-code-font-family); line-height: var(--jp-code-line-height); margin-top: 0px; margin-bottom: 0px; padding: 0px; overflow: auto; word-break: break-all; overflow-wrap: break-word;&quot;&gt;crs [text]&lt;/pre&gt;&lt;/div&gt;&lt;/div&gt;" style="text;strokeColor=#0000CC;fillColor=none;align=left;verticalAlign=middle;spacingLeft=4;spacingRight=4;overflow=hidden;points=[[0,0.5],[1,0.5]];portConstraint=eastwest;rotatable=0;whiteSpace=wrap;html=1;fontSize=14;fontColor=#0000CC;" vertex="1" parent="9aG9C3P-JA33TlA3kWqY-17">
          <mxGeometry y="30" width="229" height="452" as="geometry" />
        </mxCell>
        <mxCell id="9aG9C3P-JA33TlA3kWqY-20" value="L_fua_urau21" style="swimlane;fontStyle=0;childLayout=stackLayout;horizontal=1;startSize=30;horizontalStack=0;resizeParent=1;resizeParentMax=0;resizeLast=0;collapsible=1;marginBottom=0;whiteSpace=wrap;html=1;fontSize=14;strokeColor=#000000;fontColor=#000000;" vertex="1" parent="1">
          <mxGeometry x="-199" y="1134" width="201" height="486" as="geometry" />
        </mxCell>
        <mxCell id="9aG9C3P-JA33TlA3kWqY-21" value="&lt;div style=&quot;font-size: 14px;&quot;&gt;&lt;i style=&quot;font-weight: bold;&quot;&gt;id &lt;/i&gt;[int]&lt;/div&gt;&lt;div style=&quot;font-size: 14px;&quot;&gt;GEOMETRY [geom]&lt;/div&gt;&lt;div style=&quot;font-size: 14px;&quot;&gt;&lt;i&gt;urau_code &lt;/i&gt;[text]&lt;/div&gt;&lt;div style=&quot;font-size: 14px;&quot;&gt;&lt;i style=&quot;border-color: var(--border-color);&quot;&gt;urau_raster_code [text]&lt;/i&gt;&lt;i&gt;&lt;br&gt;&lt;/i&gt;&lt;/div&gt;&lt;div style=&quot;font-size: 14px;&quot;&gt;urau_catg&lt;/div&gt;&lt;div style=&quot;font-size: 14px;&quot;&gt;cntr_code [text]&lt;/div&gt;&lt;div style=&quot;font-size: 14px;&quot;&gt;urau_name [text]&lt;/div&gt;&lt;div style=&quot;font-size: 14px;&quot;&gt;&lt;div style=&quot;border-color: var(--border-color);&quot;&gt;city_cptl&lt;/div&gt;&lt;/div&gt;&lt;div style=&quot;font-size: 14px;&quot;&gt;&lt;i&gt;fua_code&lt;/i&gt; [text]&lt;/div&gt;&lt;div style=&quot;font-size: 14px;&quot;&gt;area_sqm [decimal(3)]&lt;/div&gt;&lt;div style=&quot;font-size: 14px;&quot;&gt;nuts3_2021 [text]&lt;/div&gt;&lt;div style=&quot;font-size: 14px;&quot;&gt;_laea3035x&amp;nbsp;&lt;/div&gt;&lt;div style=&quot;font-size: 14px;&quot;&gt;_laea3035y&lt;/div&gt;&lt;div style=&quot;font-size: 14px;&quot;&gt;&lt;span style=&quot;background-color: initial;&quot;&gt;_laea3035_minx&lt;/span&gt;&lt;br&gt;&lt;/div&gt;&lt;div style=&quot;font-size: 14px;&quot;&gt;&lt;div style=&quot;font-size: 14px;&quot;&gt;_laea3035_miny&lt;/div&gt;&lt;div style=&quot;font-size: 14px;&quot;&gt;_laea3035_maxx&lt;/div&gt;&lt;div style=&quot;font-size: 14px;&quot;&gt;_laea3035_maxy&lt;/div&gt;&lt;div style=&quot;font-size: 14px;&quot;&gt;&lt;div style=&quot;border-color: var(--border-color);&quot;&gt;_wgs84x&lt;/div&gt;&lt;div style=&quot;border-color: var(--border-color);&quot;&gt;_wgs84y&lt;/div&gt;&lt;/div&gt;&lt;div style=&quot;font-size: 14px;&quot;&gt;_wgs84_minx&lt;/div&gt;&lt;div style=&quot;font-size: 14px;&quot;&gt;_wgs84_miny&lt;/div&gt;&lt;div style=&quot;font-size: 14px;&quot;&gt;_wgs84_maxx&lt;/div&gt;&lt;div style=&quot;font-size: 14px;&quot;&gt;_wgs84_maxy&lt;/div&gt;&lt;div style=&quot;font-size: 14px;&quot;&gt;&lt;pre style=&quot;border: none; font-size: var(--jp-code-font-size); box-sizing: unset; font-family: var(--jp-code-font-family); line-height: var(--jp-code-line-height); margin-top: 0px; margin-bottom: 0px; padding: 0px; overflow: auto; word-break: break-all; overflow-wrap: break-word;&quot;&gt;version&lt;/pre&gt;&lt;pre style=&quot;border: none; font-size: var(--jp-code-font-size); box-sizing: unset; font-family: var(--jp-code-font-family); line-height: var(--jp-code-line-height); margin-top: 0px; margin-bottom: 0px; padding: 0px; overflow: auto; word-break: break-all; overflow-wrap: break-word;&quot;&gt;source&lt;/pre&gt;&lt;pre style=&quot;border: none; font-size: var(--jp-code-font-size); box-sizing: unset; font-family: var(--jp-code-font-family); line-height: var(--jp-code-line-height); margin-top: 0px; margin-bottom: 0px; padding: 0px; overflow: auto; word-break: break-all; overflow-wrap: break-word;&quot;&gt;crs&lt;/pre&gt;&lt;/div&gt;&lt;/div&gt;" style="text;strokeColor=#000000;fillColor=none;align=left;verticalAlign=middle;spacingLeft=4;spacingRight=4;overflow=hidden;points=[[0,0.5],[1,0.5]];portConstraint=eastwest;rotatable=0;whiteSpace=wrap;html=1;fontSize=14;fontColor=#000000;" vertex="1" parent="9aG9C3P-JA33TlA3kWqY-20">
          <mxGeometry y="30" width="201" height="456" as="geometry" />
        </mxCell>
        <mxCell id="9aG9C3P-JA33TlA3kWqY-22" value="L_eurostat" style="swimlane;fontStyle=0;childLayout=stackLayout;horizontal=1;startSize=30;horizontalStack=0;resizeParent=1;resizeParentMax=0;resizeLast=0;collapsible=1;marginBottom=0;whiteSpace=wrap;html=1;fontSize=14;strokeColor=#000000;fontColor=#000000;" vertex="1" parent="1">
          <mxGeometry x="-617" y="1134" width="140" height="152" as="geometry" />
        </mxCell>
        <mxCell id="9aG9C3P-JA33TlA3kWqY-23" value="&lt;div style=&quot;font-size: 14px;&quot;&gt;&lt;div&gt;&lt;i style=&quot;font-weight: bold;&quot;&gt;id &lt;/i&gt;[int]&lt;/div&gt;&lt;div&gt;&lt;i&gt;estat_code&lt;/i&gt;&lt;/div&gt;&lt;div&gt;estat_table&lt;br&gt;&lt;/div&gt;&lt;div&gt;estat_name&lt;/div&gt;&lt;div&gt;uc1_priority&lt;/div&gt;&lt;div&gt;version&lt;/div&gt;&lt;div&gt;source&lt;/div&gt;&lt;/div&gt;" style="text;strokeColor=#000000;fillColor=none;align=left;verticalAlign=middle;spacingLeft=4;spacingRight=4;overflow=hidden;points=[[0,0.5],[1,0.5]];portConstraint=eastwest;rotatable=0;whiteSpace=wrap;html=1;fontSize=14;fontColor=#000000;" vertex="1" parent="9aG9C3P-JA33TlA3kWqY-22">
          <mxGeometry y="30" width="140" height="122" as="geometry" />
        </mxCell>
        <mxCell id="9aG9C3P-JA33TlA3kWqY-24" value="Lookup Tables" style="text;html=1;align=center;verticalAlign=middle;resizable=0;points=[];autosize=1;strokeColor=#000000;fillColor=none;fontSize=18;fontStyle=1;fontColor=#000000;" vertex="1" parent="1">
          <mxGeometry x="-1125" y="1092" width="144" height="34" as="geometry" />
        </mxCell>
        <mxCell id="9aG9C3P-JA33TlA3kWqY-25" value="City cube" style="text;html=1;align=center;verticalAlign=middle;resizable=0;points=[];autosize=1;strokeColor=#000000;fillColor=none;fontSize=18;fontStyle=1;fontColor=#000000;" vertex="1" parent="1">
          <mxGeometry x="-1125" y="836" width="99" height="34" as="geometry" />
        </mxCell>
        <mxCell id="9aG9C3P-JA33TlA3kWqY-26" value="c_city_ua18" style="swimlane;fontStyle=0;childLayout=stackLayout;horizontal=1;startSize=30;horizontalStack=0;resizeParent=1;resizeParentMax=0;resizeLast=0;collapsible=1;marginBottom=0;whiteSpace=wrap;html=1;fontSize=14;strokeColor=#0000CC;fontColor=#0000CC;" vertex="1" parent="1">
          <mxGeometry x="-1125" y="878" width="163" height="136" as="geometry">
            <mxRectangle x="-1125" y="878" width="110" height="30" as="alternateBounds" />
          </mxGeometry>
        </mxCell>
        <mxCell id="9aG9C3P-JA33TlA3kWqY-27" value="&lt;div style=&quot;font-size: 14px;&quot;&gt;&lt;div&gt;&lt;i style=&quot;font-weight: bold;&quot;&gt;id &lt;/i&gt;[int]&lt;/div&gt;&lt;div&gt;&lt;i&gt;urau_code &lt;/i&gt;[text]&lt;/div&gt;&lt;div&gt;&lt;font&gt;&lt;i&gt;urau_raster_code &lt;/i&gt;[int]&lt;/font&gt;&lt;/div&gt;&lt;div&gt;&lt;font&gt;&lt;i style=&quot;border-color: var(--border-color);&quot;&gt;UA12_18_code&amp;nbsp;&lt;/i&gt;[int]&lt;i&gt;&lt;br&gt;&lt;/i&gt;&lt;/font&gt;&lt;/div&gt;&lt;div&gt;pixel_count&amp;nbsp;[int]&lt;/div&gt;&lt;/div&gt;" style="text;strokeColor=#0000CC;fillColor=none;align=left;verticalAlign=middle;spacingLeft=4;spacingRight=4;overflow=hidden;points=[[0,0.5],[1,0.5]];portConstraint=eastwest;rotatable=0;whiteSpace=wrap;html=1;fontSize=14;fontColor=#0000CC;" vertex="1" parent="9aG9C3P-JA33TlA3kWqY-26">
          <mxGeometry y="30" width="163" height="106" as="geometry" />
        </mxCell>
        <mxCell id="9aG9C3P-JA33TlA3kWqY-28" value="c_city_clc" style="swimlane;fontStyle=0;childLayout=stackLayout;horizontal=1;startSize=30;horizontalStack=0;resizeParent=1;resizeParentMax=0;resizeLast=0;collapsible=1;marginBottom=0;whiteSpace=wrap;html=1;fontSize=14;strokeColor=#000000;fontColor=#000000;" vertex="1" parent="1">
          <mxGeometry x="-737" y="878" width="218" height="136" as="geometry" />
        </mxCell>
        <mxCell id="9aG9C3P-JA33TlA3kWqY-29" value="&lt;div style=&quot;&quot;&gt;&lt;div style=&quot;&quot;&gt;&lt;div style=&quot;border-color: var(--border-color);&quot;&gt;&lt;b style=&quot;border-color: var(--border-color);&quot;&gt;&lt;i style=&quot;border-color: var(--border-color);&quot;&gt;id&amp;nbsp;&lt;/i&gt;&lt;/b&gt;[int]&lt;/div&gt;&lt;div style=&quot;border-color: var(--border-color);&quot;&gt;&lt;i&gt;urau_code&amp;nbsp;&lt;/i&gt;[text]&lt;/div&gt;&lt;/div&gt;&lt;div style=&quot;&quot;&gt;&lt;i&gt;clc_raster_code&amp;nbsp;&lt;/i&gt;[int]&lt;/div&gt;&lt;div style=&quot;&quot;&gt;pixel_count&amp;nbsp;[int]&lt;/div&gt;&lt;div style=&quot;&quot;&gt;pixel_count_norm [decimal(2)]&lt;/div&gt;&lt;/div&gt;" style="text;strokeColor=#000000;fillColor=none;align=left;verticalAlign=middle;spacingLeft=4;spacingRight=4;overflow=hidden;points=[[0,0.5],[1,0.5]];portConstraint=eastwest;rotatable=0;whiteSpace=wrap;html=1;fontSize=14;fontColor=#000000;" vertex="1" parent="9aG9C3P-JA33TlA3kWqY-28">
          <mxGeometry y="30" width="218" height="106" as="geometry" />
        </mxCell>
        <mxCell id="9aG9C3P-JA33TlA3kWqY-30" value="c_city_env_zones" style="swimlane;fontStyle=0;childLayout=stackLayout;horizontal=1;startSize=30;horizontalStack=0;resizeParent=1;resizeParentMax=0;resizeLast=0;collapsible=1;marginBottom=0;whiteSpace=wrap;html=1;fontSize=14;strokeColor=#000000;fontColor=#000000;" vertex="1" parent="1">
          <mxGeometry x="-510" y="878" width="140" height="106" as="geometry" />
        </mxCell>
        <mxCell id="9aG9C3P-JA33TlA3kWqY-31" value="&lt;div style=&quot;&quot;&gt;&lt;div style=&quot;&quot;&gt;&lt;div&gt;&lt;div style=&quot;border-color: var(--border-color);&quot;&gt;&lt;b style=&quot;border-color: var(--border-color);&quot;&gt;&lt;i style=&quot;border-color: var(--border-color);&quot;&gt;id&amp;nbsp;&lt;/i&gt;&lt;/b&gt;[int]&lt;/div&gt;&lt;/div&gt;&lt;div&gt;&lt;i&gt;urau_code&amp;nbsp;&lt;/i&gt;[text]&lt;/div&gt;&lt;div&gt;&lt;i&gt;ez_raster_code&amp;nbsp;&lt;/i&gt;[int]&lt;/div&gt;&lt;/div&gt;&lt;/div&gt;" style="text;strokeColor=#000000;fillColor=none;align=left;verticalAlign=middle;spacingLeft=4;spacingRight=4;overflow=hidden;points=[[0,0.5],[1,0.5]];portConstraint=eastwest;rotatable=0;whiteSpace=wrap;html=1;fontSize=14;fontColor=#000000;" vertex="1" parent="9aG9C3P-JA33TlA3kWqY-30">
          <mxGeometry y="30" width="140" height="76" as="geometry" />
        </mxCell>
        <mxCell id="9aG9C3P-JA33TlA3kWqY-32" value="c_city_eurostat" style="swimlane;fontStyle=0;childLayout=stackLayout;horizontal=1;startSize=30;horizontalStack=0;resizeParent=1;resizeParentMax=0;resizeLast=0;collapsible=1;marginBottom=0;whiteSpace=wrap;html=1;fontSize=14;strokeColor=#000000;fontColor=#000000;" vertex="1" parent="1">
          <mxGeometry x="-354" y="878" width="159" height="170" as="geometry" />
        </mxCell>
        <mxCell id="9aG9C3P-JA33TlA3kWqY-33" value="&lt;div style=&quot;&quot;&gt;&lt;div style=&quot;&quot;&gt;&lt;div&gt;&lt;div style=&quot;border-color: var(--border-color);&quot;&gt;&lt;b style=&quot;border-color: var(--border-color);&quot;&gt;&lt;i style=&quot;border-color: var(--border-color);&quot;&gt;id&amp;nbsp;&lt;/i&gt;&lt;/b&gt;[int]&lt;/div&gt;&lt;/div&gt;&lt;div&gt;&lt;i&gt;estat_code&amp;nbsp;&lt;/i&gt;[text]&lt;/div&gt;&lt;div&gt;&lt;i&gt;urau_code&amp;nbsp;&lt;/i&gt;[text]&lt;/div&gt;&lt;div&gt;1991&amp;nbsp;[decimal(2)]&lt;/div&gt;&lt;div&gt;1992&amp;nbsp;[decimal(2)]&lt;/div&gt;&lt;div&gt;...&lt;/div&gt;&lt;div&gt;2020&amp;nbsp;[decimal(2)]&lt;/div&gt;&lt;div&gt;2021&amp;nbsp;[decimal(2)]&lt;/div&gt;&lt;/div&gt;&lt;/div&gt;" style="text;strokeColor=#000000;fillColor=none;align=left;verticalAlign=middle;spacingLeft=4;spacingRight=4;overflow=hidden;points=[[0,0.5],[1,0.5]];portConstraint=eastwest;rotatable=0;whiteSpace=wrap;html=1;fontSize=14;fontColor=#000000;" vertex="1" parent="9aG9C3P-JA33TlA3kWqY-32">
          <mxGeometry y="30" width="159" height="140" as="geometry" />
        </mxCell>
        <mxCell id="9aG9C3P-JA33TlA3kWqY-35" value="c_city_ua12" style="swimlane;fontStyle=0;childLayout=stackLayout;horizontal=1;startSize=30;horizontalStack=0;resizeParent=1;resizeParentMax=0;resizeLast=0;collapsible=1;marginBottom=0;whiteSpace=wrap;html=1;fontSize=14;strokeColor=#000000;fontColor=#000000;" vertex="1" parent="1">
          <mxGeometry x="-913" y="878" width="166" height="136" as="geometry" />
        </mxCell>
        <mxCell id="9aG9C3P-JA33TlA3kWqY-36" value="&lt;div style=&quot;&quot;&gt;&lt;div style=&quot;border-color: var(--border-color);&quot;&gt;&lt;b style=&quot;border-color: var(--border-color);&quot;&gt;&lt;i style=&quot;border-color: var(--border-color);&quot;&gt;id&amp;nbsp;&lt;/i&gt;&lt;/b&gt;[int]&lt;/div&gt;&lt;div style=&quot;&quot;&gt;&lt;i&gt;urau_code&amp;nbsp;&lt;/i&gt;[text]&lt;/div&gt;&lt;div style=&quot;&quot;&gt;&lt;i&gt;urau_raster_code&amp;nbsp;&lt;/i&gt;[int]&lt;i&gt;&lt;font&gt;&lt;br&gt;&lt;/font&gt;&lt;/i&gt;&lt;/div&gt;&lt;div style=&quot;&quot;&gt;&lt;i&gt;UA12_18_code&amp;nbsp;&lt;/i&gt;[text]&lt;br&gt;&lt;/div&gt;&lt;div style=&quot;&quot;&gt;&lt;span style=&quot;background-color: initial;&quot;&gt;pixel_count&amp;nbsp;&lt;/span&gt;[int]&lt;br&gt;&lt;/div&gt;&lt;/div&gt;" style="text;strokeColor=#000000;fillColor=none;align=left;verticalAlign=middle;spacingLeft=4;spacingRight=4;overflow=hidden;points=[[0,0.5],[1,0.5]];portConstraint=eastwest;rotatable=0;whiteSpace=wrap;html=1;fontSize=14;fontColor=#000000;" vertex="1" parent="9aG9C3P-JA33TlA3kWqY-35">
          <mxGeometry y="30" width="166" height="106" as="geometry" />
        </mxCell>
        <mxCell id="9aG9C3P-JA33TlA3kWqY-37" value="&lt;pre style=&quot;box-sizing: unset; font-family: var(--jp-code-font-family); font-size: var(--jp-code-font-size); line-height: var(--jp-code-line-height); border: none; margin-top: 0px; margin-bottom: 0px; padding: 0px; overflow: auto; word-break: break-all; overflow-wrap: break-word; text-align: left;&quot;&gt;&lt;span style=&quot;background-color: rgb(255, 255, 255);&quot;&gt;L_clc&lt;/span&gt;&lt;/pre&gt;" style="swimlane;fontStyle=0;childLayout=stackLayout;horizontal=1;startSize=30;horizontalStack=0;resizeParent=1;resizeParentMax=0;resizeLast=0;collapsible=1;marginBottom=0;whiteSpace=wrap;html=1;fontSize=14;strokeColor=#000000;fontColor=#000000;" vertex="1" parent="1">
          <mxGeometry x="-617" y="1435" width="140" height="164" as="geometry" />
        </mxCell>
        <mxCell id="9aG9C3P-JA33TlA3kWqY-38" value="&lt;div style=&quot;font-size: 14px;&quot;&gt;&lt;pre style=&quot;box-sizing: unset; font-family: var(--jp-code-font-family); font-size: var(--jp-code-font-size); line-height: var(--jp-code-line-height); border: none; margin-top: 0px; margin-bottom: 0px; padding: 0px; overflow: auto; word-break: break-all; overflow-wrap: break-word;&quot;&gt;&lt;b&gt;&lt;i&gt;id&lt;/i&gt;&lt;/b&gt;&lt;br&gt;&lt;i&gt;clc_code&lt;/i&gt;&lt;br&gt;&lt;/pre&gt;&lt;pre style=&quot;box-sizing: unset; font-family: var(--jp-code-font-family); font-size: var(--jp-code-font-size); line-height: var(--jp-code-line-height); border: none; margin-top: 0px; margin-bottom: 0px; padding: 0px; overflow: auto; word-break: break-all; overflow-wrap: break-word;&quot;&gt;&lt;i&gt;clc_raster_code&lt;/i&gt;&lt;/pre&gt;&lt;pre style=&quot;box-sizing: unset; font-family: var(--jp-code-font-family); font-size: var(--jp-code-font-size); line-height: var(--jp-code-line-height); border: none; margin-top: 0px; margin-bottom: 0px; padding: 0px; overflow: auto; word-break: break-all; overflow-wrap: break-word;&quot;&gt;&lt;pre style=&quot;border: none; font-size: var(--jp-code-font-size); box-sizing: unset; font-family: var(--jp-code-font-family); line-height: var(--jp-code-line-height); margin-top: 0px; margin-bottom: 0px; padding: 0px; overflow: auto; word-break: break-all; overflow-wrap: break-word;&quot;&gt;clc_name&lt;/pre&gt;&lt;pre style=&quot;border: none; font-size: var(--jp-code-font-size); box-sizing: unset; font-family: var(--jp-code-font-family); line-height: var(--jp-code-line-height); margin-top: 0px; margin-bottom: 0px; padding: 0px; overflow: auto; word-break: break-all; overflow-wrap: break-word;&quot;&gt;hex_code&lt;/pre&gt;&lt;/pre&gt;&lt;pre style=&quot;box-sizing: unset; font-family: var(--jp-code-font-family); font-size: var(--jp-code-font-size); line-height: var(--jp-code-line-height); border: none; margin-top: 0px; margin-bottom: 0px; padding: 0px; overflow: auto; word-break: break-all; overflow-wrap: break-word;&quot;&gt;version&lt;/pre&gt;&lt;pre style=&quot;box-sizing: unset; font-family: var(--jp-code-font-family); font-size: var(--jp-code-font-size); line-height: var(--jp-code-line-height); border: none; margin-top: 0px; margin-bottom: 0px; padding: 0px; overflow: auto; word-break: break-all; overflow-wrap: break-word;&quot;&gt;source&lt;/pre&gt;&lt;/div&gt;" style="text;strokeColor=#000000;fillColor=none;align=left;verticalAlign=middle;spacingLeft=4;spacingRight=4;overflow=hidden;points=[[0,0.5],[1,0.5]];portConstraint=eastwest;rotatable=0;whiteSpace=wrap;html=1;fontSize=14;fontColor=#000000;" vertex="1" parent="9aG9C3P-JA33TlA3kWqY-37">
          <mxGeometry y="30" width="140" height="134" as="geometry" />
        </mxCell>
        <mxCell id="9aG9C3P-JA33TlA3kWqY-40" value="UC1 results database" style="text;html=1;align=center;verticalAlign=middle;resizable=0;points=[];autosize=1;strokeColor=none;fillColor=none;fontSize=24;fontStyle=1;fontColor=#000099;" vertex="1" parent="1">
          <mxGeometry x="-1145" y="750" width="262" height="41" as="geometry" />
        </mxCell>
        <mxCell id="oSXtnC0YChFjxjO5omoo-15" value="&lt;b&gt;&lt;u&gt;Legend&lt;/u&gt;&lt;/b&gt;&lt;br&gt;&lt;br&gt;&lt;b style=&quot;font-style: italic;&quot;&gt;id &lt;/b&gt;primary key, serial number&lt;br&gt;&lt;i&gt;example &lt;/i&gt;foreign key&lt;br&gt;[val] data type&lt;br&gt;[val(x)] numeric type with x decimal digits" style="rounded=0;whiteSpace=wrap;html=1;align=left;" vertex="1" parent="1">
          <mxGeometry x="-858" y="718" width="230" height="99" as="geometry" />
        </mxCell>
        <mxCell id="BTA41RiY_BVECqZEzfi5-1" value="L_city_urau21" style="swimlane;fontStyle=0;childLayout=stackLayout;horizontal=1;startSize=30;horizontalStack=0;resizeParent=1;resizeParentMax=0;resizeLast=0;collapsible=1;marginBottom=0;whiteSpace=wrap;html=1;fontSize=14;strokeColor=#000000;fontColor=#000000;" vertex="1" parent="1">
          <mxGeometry x="320" y="930" width="229" height="482" as="geometry" />
        </mxCell>
        <mxCell id="BTA41RiY_BVECqZEzfi5-2" value="&lt;div style=&quot;font-size: 14px;&quot;&gt;&lt;b style=&quot;font-style: italic;&quot;&gt;id &lt;/b&gt;[int]&lt;/div&gt;&lt;div style=&quot;font-size: 14px;&quot;&gt;GEOMETRY [geom]&lt;/div&gt;&lt;div style=&quot;font-size: 14px;&quot;&gt;&lt;i&gt;urau_code&lt;/i&gt;&lt;i&gt;&amp;nbsp;&lt;/i&gt;[text]&lt;/div&gt;&lt;div style=&quot;font-size: 14px;&quot;&gt;&lt;i&gt;urau_raster_code &lt;/i&gt;[int]&lt;/div&gt;&lt;div style=&quot;font-size: 14px;&quot;&gt;urau_catg [char(1)]&lt;/div&gt;&lt;div style=&quot;font-size: 14px;&quot;&gt;cntr_code [char(2)]&lt;/div&gt;&lt;div style=&quot;font-size: 14px;&quot;&gt;urau_name [text]&lt;/div&gt;&lt;div style=&quot;font-size: 14px;&quot;&gt;&lt;div style=&quot;border-color: var(--border-color);&quot;&gt;city_cptl&lt;/div&gt;&lt;/div&gt;&lt;div style=&quot;font-size: 14px;&quot;&gt;fua_code [text]&lt;/div&gt;&lt;div style=&quot;font-size: 14px;&quot;&gt;area_sqm [decimal(6)]&lt;/div&gt;&lt;div style=&quot;font-size: 14px;&quot;&gt;nuts3_2021 [text]&lt;/div&gt;&lt;div style=&quot;font-size: 14px;&quot;&gt;_laea3035x [decimal(10)]&lt;/div&gt;&lt;div style=&quot;font-size: 14px;&quot;&gt;_laea3035y&amp;nbsp;[decimal(10)]&lt;/div&gt;&lt;div style=&quot;font-size: 14px;&quot;&gt;&lt;div style=&quot;font-size: 14px;&quot;&gt;_laea3035_minx [decimal(10)&lt;span style=&quot;background-color: initial;&quot;&gt;]&lt;/span&gt;&lt;/div&gt;&lt;div style=&quot;font-size: 14px;&quot;&gt;_laea3035_miny [decimal(10)&lt;span style=&quot;background-color: initial;&quot;&gt;]&lt;/span&gt;&lt;/div&gt;&lt;div style=&quot;font-size: 14px;&quot;&gt;_laea3035_maxx [decimal(10)&lt;span style=&quot;background-color: initial;&quot;&gt;]&lt;/span&gt;&lt;/div&gt;&lt;div style=&quot;font-size: 14px;&quot;&gt;_laea3035_maxy [decimal(10)&lt;span style=&quot;background-color: initial;&quot;&gt;]&lt;/span&gt;&lt;/div&gt;&lt;div style=&quot;font-size: 14px;&quot;&gt;&lt;div style=&quot;border-color: var(--border-color);&quot;&gt;_wgs84x [decimal(4)&lt;span style=&quot;background-color: initial;&quot;&gt;]&lt;/span&gt;&lt;/div&gt;&lt;div style=&quot;border-color: var(--border-color);&quot;&gt;_wgs84y [decimal(4)&lt;span style=&quot;background-color: initial;&quot;&gt;]&lt;/span&gt;&lt;/div&gt;&lt;/div&gt;&lt;div style=&quot;font-size: 14px;&quot;&gt;_wgs84_minx [decimal(4)&lt;span style=&quot;background-color: initial;&quot;&gt;]&lt;/span&gt;&lt;/div&gt;&lt;div style=&quot;font-size: 14px;&quot;&gt;_wgs84_miny [decimal(4)&lt;span style=&quot;background-color: initial;&quot;&gt;]&lt;/span&gt;&lt;/div&gt;&lt;div style=&quot;font-size: 14px;&quot;&gt;_wgs84_maxx [decimal(4)&lt;span style=&quot;background-color: initial;&quot;&gt;]&lt;/span&gt;&lt;/div&gt;&lt;div style=&quot;font-size: 14px;&quot;&gt;_wgs84_maxy [decimal(4)&lt;span style=&quot;background-color: initial;&quot;&gt;]&lt;/span&gt;&lt;/div&gt;&lt;div style=&quot;font-size: 14px;&quot;&gt;&lt;pre style=&quot;border: none; font-size: var(--jp-code-font-size); box-sizing: unset; font-family: var(--jp-code-font-family); line-height: var(--jp-code-line-height); margin-top: 0px; margin-bottom: 0px; padding: 0px; overflow: auto; word-break: break-all; overflow-wrap: break-word;&quot;&gt;version [decimal(1)]&lt;/pre&gt;&lt;pre style=&quot;border: none; font-size: var(--jp-code-font-size); box-sizing: unset; font-family: var(--jp-code-font-family); line-height: var(--jp-code-line-height); margin-top: 0px; margin-bottom: 0px; padding: 0px; overflow: auto; word-break: break-all; overflow-wrap: break-word;&quot;&gt;source [text]&lt;/pre&gt;&lt;pre style=&quot;border: none; font-size: var(--jp-code-font-size); box-sizing: unset; font-family: var(--jp-code-font-family); line-height: var(--jp-code-line-height); margin-top: 0px; margin-bottom: 0px; padding: 0px; overflow: auto; word-break: break-all; overflow-wrap: break-word;&quot;&gt;crs [text]&lt;/pre&gt;&lt;/div&gt;&lt;/div&gt;" style="text;strokeColor=#000000;fillColor=none;align=left;verticalAlign=middle;spacingLeft=4;spacingRight=4;overflow=hidden;points=[[0,0.5],[1,0.5]];portConstraint=eastwest;rotatable=0;whiteSpace=wrap;html=1;fontSize=14;fontColor=#000000;" vertex="1" parent="BTA41RiY_BVECqZEzfi5-1">
          <mxGeometry y="30" width="229" height="452" as="geometry" />
        </mxCell>
        <mxCell id="BTA41RiY_BVECqZEzfi5-3" value="L_fua_urau21" style="swimlane;fontStyle=0;childLayout=stackLayout;horizontal=1;startSize=30;horizontalStack=0;resizeParent=1;resizeParentMax=0;resizeLast=0;collapsible=1;marginBottom=0;whiteSpace=wrap;html=1;fontSize=14;strokeColor=#000000;fontColor=#000000;" vertex="1" parent="1">
          <mxGeometry x="567" y="930" width="201" height="486" as="geometry" />
        </mxCell>
        <mxCell id="BTA41RiY_BVECqZEzfi5-4" value="&lt;div style=&quot;font-size: 14px;&quot;&gt;&lt;i style=&quot;font-weight: bold;&quot;&gt;id &lt;/i&gt;[int]&lt;/div&gt;&lt;div style=&quot;font-size: 14px;&quot;&gt;GEOMETRY [geom]&lt;/div&gt;&lt;div style=&quot;font-size: 14px;&quot;&gt;&lt;i&gt;urau_code &lt;/i&gt;[text]&lt;/div&gt;&lt;div style=&quot;font-size: 14px;&quot;&gt;&lt;i style=&quot;border-color: var(--border-color);&quot;&gt;urau_raster_code [text]&lt;/i&gt;&lt;i&gt;&lt;br&gt;&lt;/i&gt;&lt;/div&gt;&lt;div style=&quot;font-size: 14px;&quot;&gt;urau_catg&lt;/div&gt;&lt;div style=&quot;font-size: 14px;&quot;&gt;cntr_code [text]&lt;/div&gt;&lt;div style=&quot;font-size: 14px;&quot;&gt;urau_name [text]&lt;/div&gt;&lt;div style=&quot;font-size: 14px;&quot;&gt;&lt;div style=&quot;border-color: var(--border-color);&quot;&gt;city_cptl&lt;/div&gt;&lt;/div&gt;&lt;div style=&quot;font-size: 14px;&quot;&gt;&lt;i&gt;fua_code&lt;/i&gt; [text]&lt;/div&gt;&lt;div style=&quot;font-size: 14px;&quot;&gt;area_sqm [decimal(3)]&lt;/div&gt;&lt;div style=&quot;font-size: 14px;&quot;&gt;nuts3_2021 [text]&lt;/div&gt;&lt;div style=&quot;font-size: 14px;&quot;&gt;_laea3035x&amp;nbsp;&lt;/div&gt;&lt;div style=&quot;font-size: 14px;&quot;&gt;_laea3035y&lt;/div&gt;&lt;div style=&quot;font-size: 14px;&quot;&gt;&lt;span style=&quot;background-color: initial;&quot;&gt;_laea3035_minx&lt;/span&gt;&lt;br&gt;&lt;/div&gt;&lt;div style=&quot;font-size: 14px;&quot;&gt;&lt;div style=&quot;font-size: 14px;&quot;&gt;_laea3035_miny&lt;/div&gt;&lt;div style=&quot;font-size: 14px;&quot;&gt;_laea3035_maxx&lt;/div&gt;&lt;div style=&quot;font-size: 14px;&quot;&gt;_laea3035_maxy&lt;/div&gt;&lt;div style=&quot;font-size: 14px;&quot;&gt;&lt;div style=&quot;border-color: var(--border-color);&quot;&gt;_wgs84x&lt;/div&gt;&lt;div style=&quot;border-color: var(--border-color);&quot;&gt;_wgs84y&lt;/div&gt;&lt;/div&gt;&lt;div style=&quot;font-size: 14px;&quot;&gt;_wgs84_minx&lt;/div&gt;&lt;div style=&quot;font-size: 14px;&quot;&gt;_wgs84_miny&lt;/div&gt;&lt;div style=&quot;font-size: 14px;&quot;&gt;_wgs84_maxx&lt;/div&gt;&lt;div style=&quot;font-size: 14px;&quot;&gt;_wgs84_maxy&lt;/div&gt;&lt;div style=&quot;font-size: 14px;&quot;&gt;&lt;pre style=&quot;border: none; font-size: var(--jp-code-font-size); box-sizing: unset; font-family: var(--jp-code-font-family); line-height: var(--jp-code-line-height); margin-top: 0px; margin-bottom: 0px; padding: 0px; overflow: auto; word-break: break-all; overflow-wrap: break-word;&quot;&gt;version&lt;/pre&gt;&lt;pre style=&quot;border: none; font-size: var(--jp-code-font-size); box-sizing: unset; font-family: var(--jp-code-font-family); line-height: var(--jp-code-line-height); margin-top: 0px; margin-bottom: 0px; padding: 0px; overflow: auto; word-break: break-all; overflow-wrap: break-word;&quot;&gt;source&lt;/pre&gt;&lt;pre style=&quot;border: none; font-size: var(--jp-code-font-size); box-sizing: unset; font-family: var(--jp-code-font-family); line-height: var(--jp-code-line-height); margin-top: 0px; margin-bottom: 0px; padding: 0px; overflow: auto; word-break: break-all; overflow-wrap: break-word;&quot;&gt;crs&lt;/pre&gt;&lt;/div&gt;&lt;/div&gt;" style="text;strokeColor=#000000;fillColor=none;align=left;verticalAlign=middle;spacingLeft=4;spacingRight=4;overflow=hidden;points=[[0,0.5],[1,0.5]];portConstraint=eastwest;rotatable=0;whiteSpace=wrap;html=1;fontSize=14;fontColor=#000000;" vertex="1" parent="BTA41RiY_BVECqZEzfi5-3">
          <mxGeometry y="30" width="201" height="456" as="geometry" />
        </mxCell>
        <mxCell id="BTA41RiY_BVECqZEzfi5-5" value="" style="shape=mxgraph.mockup.markup.redX;fillColor=#ff0000;html=1;shadow=0;whiteSpace=wrap;strokeColor=none;" vertex="1" parent="1">
          <mxGeometry x="369" y="900" width="399" height="582" as="geometry" />
        </mxCell>
      </root>
    </mxGraphModel>
  </diagram>
</mxfile>
